<svg xmlns="http://www.w3.org/2000/svg" xmlns:xlink="http://www.w3.org/1999/xlink" width="500" zoomAndPan="magnify" viewBox="0 0 375 374.999991" height="500" preserveAspectRatio="xMidYMid meet" version="1.0"><defs><g/></defs><g fill="rgb(0%, 50.19989%, 21.569824%)" fill-opacity="1"><g transform="translate(174.645271, 177.427706)"><g><path d="M 0.683594 -3.980469 C 0.683594 -1.617188 2.183594 0.453125 4.824219 0.453125 C 9.351562 0.453125 12.011719 -3.550781 12.011719 -9.078125 C 12.011719 -10.167969 11.964844 -11.078125 11.875 -11.808594 L 14.695312 -4.367188 C 15.5625 -2.070312 15.675781 -0.226562 12.46875 -0.226562 L 12.46875 0 L 19.929688 0 L 19.929688 -0.226562 C 18.542969 -0.226562 17.8125 -1.480469 16.8125 -3.980469 L 9.53125 -23.203125 L 9.304688 -23.203125 C 7.871094 -19.429688 7.03125 -17.175781 5.640625 -13.511719 C 5.414062 -12.921875 5.527344 -12.308594 6.164062 -12.308594 C 7.460938 -12.308594 8.144531 -14.695312 9.238281 -14.695312 C 9.53125 -14.695312 9.78125 -14.515625 9.78125 -14.082031 C 9.78125 -11.714844 0.683594 -9.578125 0.683594 -3.980469 Z M 2.617188 -4.414062 C 2.617188 -10.03125 10.03125 -10.988281 10.03125 -14.035156 C 10.03125 -14.628906 9.714844 -14.925781 9.28125 -14.925781 C 8.078125 -14.925781 7.234375 -12.535156 6.1875 -12.535156 C 5.824219 -12.535156 5.640625 -12.808594 5.9375 -13.605469 L 8.554688 -20.566406 L 11.308594 -13.308594 C 11.714844 -11.964844 11.785156 -10.714844 11.785156 -9.03125 C 11.785156 -5.300781 9.988281 -0.636719 6.1875 -0.636719 C 3.957031 -0.636719 2.617188 -2.273438 2.617188 -4.414062 Z M 2.617188 -4.414062 "/></g></g></g><g fill="rgb(0%, 50.19989%, 21.569824%)" fill-opacity="1"><g transform="translate(194.572601, 177.427706)"><g><path d="M 1.363281 -1.523438 C 1.363281 -0.683594 2.046875 0 2.890625 0 C 3.730469 0 4.414062 -0.683594 4.414062 -1.523438 C 4.414062 -2.367188 3.730469 -3.046875 2.890625 -3.046875 C 2.046875 -3.046875 1.363281 -2.367188 1.363281 -1.523438 Z M 1.363281 -1.523438 "/></g></g></g><g fill="rgb(0%, 50.19989%, 21.569824%)" fill-opacity="1"><g transform="translate(165.756131, 186.262352)"><g><path d="M 0.125 -0.71875 C 0.125 -0.292969 0.394531 0.0820312 0.871094 0.0820312 C 1.6875 0.0820312 2.167969 -0.640625 2.167969 -1.640625 C 2.167969 -1.835938 2.160156 -2 2.144531 -2.132812 L 2.652344 -0.789062 C 2.808594 -0.375 2.832031 -0.0429688 2.25 -0.0429688 L 2.25 0 L 3.597656 0 L 3.597656 -0.0429688 C 3.347656 -0.0429688 3.214844 -0.265625 3.035156 -0.71875 L 1.722656 -4.191406 L 1.679688 -4.191406 C 1.421875 -3.507812 1.269531 -3.101562 1.019531 -2.441406 C 0.976562 -2.332031 1 -2.222656 1.113281 -2.222656 C 1.347656 -2.222656 1.46875 -2.652344 1.667969 -2.652344 C 1.722656 -2.652344 1.765625 -2.621094 1.765625 -2.542969 C 1.765625 -2.117188 0.125 -1.730469 0.125 -0.71875 Z M 0.472656 -0.796875 C 0.472656 -1.8125 1.8125 -1.984375 1.8125 -2.535156 C 1.8125 -2.640625 1.753906 -2.695312 1.675781 -2.695312 C 1.457031 -2.695312 1.304688 -2.261719 1.117188 -2.261719 C 1.050781 -2.261719 1.019531 -2.3125 1.070312 -2.457031 L 1.542969 -3.714844 L 2.042969 -2.402344 C 2.117188 -2.160156 2.128906 -1.933594 2.128906 -1.628906 C 2.128906 -0.957031 1.804688 -0.113281 1.117188 -0.113281 C 0.714844 -0.113281 0.472656 -0.410156 0.472656 -0.796875 Z M 0.472656 -0.796875 "/></g></g></g><g fill="rgb(0%, 50.19989%, 21.569824%)" fill-opacity="1"><g transform="translate(171.052937, 186.262352)"><g><path d="M 0.246094 -2.054688 C 0.246094 -0.820312 1.050781 0.0820312 2.074219 0.0820312 C 2.660156 0.0820312 3.152344 -0.214844 3.460938 -0.730469 L 3.460938 -1.324219 C 3.460938 -1.980469 2.875 -2.054688 2.3125 -2.054688 C 1.796875 -2.054688 1.292969 -1.988281 1.292969 -2.261719 C 1.292969 -2.457031 1.527344 -2.542969 1.78125 -2.542969 C 2.1875 -2.542969 2.742188 -2.148438 3.238281 -2.148438 C 3.492188 -2.148438 3.71875 -2.292969 3.652344 -2.550781 C 3.652344 -2.550781 3.640625 -2.425781 3.351562 -2.425781 C 2.820312 -2.425781 2.484375 -2.800781 1.871094 -2.800781 C 1.625 -2.800781 1.25 -2.632812 1.25 -2.285156 C 1.25 -2.042969 1.484375 -2.003906 1.78125 -2.003906 C 2.332031 -2.003906 3.109375 -2.125 3.109375 -1.324219 L 3.109375 -0.742188 C 3.109375 -0.59375 2.796875 0.03125 2.074219 0.03125 C 1.28125 0.03125 0.617188 -0.855469 0.617188 -2.054688 C 0.617188 -3.253906 1.222656 -4.140625 2.074219 -4.140625 C 2.953125 -4.140625 3.203125 -3.449219 3.203125 -3.449219 L 3.246094 -3.449219 L 3.246094 -4 C 2.929688 -4.109375 2.578125 -4.191406 2.074219 -4.191406 C 1.050781 -4.191406 0.246094 -3.285156 0.246094 -2.054688 Z M 0.246094 -2.054688 "/></g></g></g><g fill="rgb(0%, 50.19989%, 21.569824%)" fill-opacity="1"><g transform="translate(176.53447, 186.262352)"><g><path d="M 0.125 -4.066406 C 0.476562 -4.066406 0.5 -3.773438 0.5 -2.964844 L 0.5 -1.140625 C 0.5 -0.332031 0.476562 -0.0429688 0.125 -0.0429688 L 0.125 0 L 3.0625 0 L 3.0625 -0.679688 L 3.023438 -0.679688 C 3.023438 -0.0859375 1.769531 -0.0429688 1.378906 -0.0429688 L 0.855469 -0.0429688 L 0.855469 -2.234375 C 0.921875 -2.320312 1.023438 -2.382812 1.140625 -2.378906 C 1.433594 -2.371094 1.644531 -2.015625 2.144531 -2.015625 C 2.46875 -2.015625 2.667969 -2.226562 2.667969 -2.46875 L 2.628906 -2.46875 C 2.628906 -2.324219 2.480469 -2.234375 2.324219 -2.234375 C 1.964844 -2.234375 1.738281 -2.488281 1.332031 -2.488281 C 1.140625 -2.488281 0.976562 -2.417969 0.855469 -2.300781 L 0.855469 -4.066406 L 1.535156 -4.066406 C 2.480469 -4.066406 3.023438 -3.84375 3.023438 -3.570312 L 3.023438 -3.554688 L 3.0625 -3.554688 L 3.0625 -4.109375 L 0.125 -4.109375 Z M 0.125 -4.066406 "/></g></g></g><g fill="rgb(0%, 50.19989%, 21.569824%)" fill-opacity="1"><g transform="translate(181.420775, 186.262352)"><g><path d="M 0.125 -4.109375 L 0.125 -4.066406 C 0.476562 -4.066406 0.5 -3.773438 0.5 -2.964844 L 0.5 -1.140625 C 0.5 -0.332031 0.476562 -0.0429688 0.125 -0.0429688 L 0.125 0 L 1.230469 0 L 1.230469 -0.0429688 C 0.878906 -0.0429688 0.542969 -0.523438 0.542969 -1.71875 L 0.542969 -3.878906 L 3.140625 0.0820312 L 3.183594 0.0820312 L 3.183594 -2.964844 C 3.183594 -3.773438 3.207031 -4.066406 3.5625 -4.066406 L 3.5625 -4.109375 L 2.453125 -4.109375 L 2.453125 -4.066406 C 2.804688 -4.066406 3.140625 -3.585938 3.140625 -2.390625 L 3.140625 -0.601562 L 0.84375 -4.109375 Z M 0.125 -4.109375 "/></g></g></g><g fill="rgb(0%, 50.19989%, 21.569824%)" fill-opacity="1"><g transform="translate(186.803788, 186.262352)"><g><path d="M 0.125 0 L 0.453125 0 C 0.882812 0 1.238281 0.0820312 1.597656 0.0820312 C 2.863281 0.0820312 3.460938 -0.929688 3.460938 -2.054688 C 3.460938 -3.179688 2.863281 -4.191406 1.597656 -4.191406 C 1.238281 -4.191406 0.882812 -4.109375 0.453125 -4.109375 L 0.125 -4.109375 L 0.125 -4.066406 C 0.476562 -4.066406 0.5 -3.773438 0.5 -2.964844 L 0.5 -1.140625 C 0.5 -0.332031 0.476562 -0.0429688 0.125 -0.0429688 Z M 0.851562 -4.015625 C 1.089844 -4.089844 1.328125 -4.132812 1.59375 -4.132812 C 2.609375 -4.132812 3.109375 -3.175781 3.109375 -2.054688 C 3.109375 -0.933594 2.609375 0.0234375 1.59375 0.0234375 C 1.328125 0.0234375 1.089844 -0.015625 0.851562 -0.0898438 Z M 0.851562 -4.015625 "/></g></g></g><g fill="rgb(0%, 50.19989%, 21.569824%)" fill-opacity="1"><g transform="translate(192.211431, 186.262352)"><g><path d="M 0.125 -0.71875 C 0.125 -0.292969 0.394531 0.0820312 0.871094 0.0820312 C 1.6875 0.0820312 2.167969 -0.640625 2.167969 -1.640625 C 2.167969 -1.835938 2.160156 -2 2.144531 -2.132812 L 2.652344 -0.789062 C 2.808594 -0.375 2.832031 -0.0429688 2.25 -0.0429688 L 2.25 0 L 3.597656 0 L 3.597656 -0.0429688 C 3.347656 -0.0429688 3.214844 -0.265625 3.035156 -0.71875 L 1.722656 -4.191406 L 1.679688 -4.191406 C 1.421875 -3.507812 1.269531 -3.101562 1.019531 -2.441406 C 0.976562 -2.332031 1 -2.222656 1.113281 -2.222656 C 1.347656 -2.222656 1.46875 -2.652344 1.667969 -2.652344 C 1.722656 -2.652344 1.765625 -2.621094 1.765625 -2.542969 C 1.765625 -2.117188 0.125 -1.730469 0.125 -0.71875 Z M 0.472656 -0.796875 C 0.472656 -1.8125 1.8125 -1.984375 1.8125 -2.535156 C 1.8125 -2.640625 1.753906 -2.695312 1.675781 -2.695312 C 1.457031 -2.695312 1.304688 -2.261719 1.117188 -2.261719 C 1.050781 -2.261719 1.019531 -2.3125 1.070312 -2.457031 L 1.542969 -3.714844 L 2.042969 -2.402344 C 2.117188 -2.160156 2.128906 -1.933594 2.128906 -1.628906 C 2.128906 -0.957031 1.804688 -0.113281 1.117188 -0.113281 C 0.714844 -0.113281 0.472656 -0.410156 0.472656 -0.796875 Z M 0.472656 -0.796875 "/></g></g></g><g fill="rgb(0%, 50.19989%, 21.569824%)" fill-opacity="1"><g transform="translate(197.508236, 186.262352)"><g/></g></g><g fill="rgb(0%, 50.19989%, 21.569824%)" fill-opacity="1"><g transform="translate(200.645806, 186.262352)"><g><path d="M 0.125 0 L 0.453125 0 C 0.882812 0 1.238281 0.0820312 1.597656 0.0820312 C 2.863281 0.0820312 3.460938 -0.929688 3.460938 -2.054688 C 3.460938 -3.179688 2.863281 -4.191406 1.597656 -4.191406 C 1.238281 -4.191406 0.882812 -4.109375 0.453125 -4.109375 L 0.125 -4.109375 L 0.125 -4.066406 C 0.476562 -4.066406 0.5 -3.773438 0.5 -2.964844 L 0.5 -1.140625 C 0.5 -0.332031 0.476562 -0.0429688 0.125 -0.0429688 Z M 0.851562 -4.015625 C 1.089844 -4.089844 1.328125 -4.132812 1.59375 -4.132812 C 2.609375 -4.132812 3.109375 -3.175781 3.109375 -2.054688 C 3.109375 -0.933594 2.609375 0.0234375 1.59375 0.0234375 C 1.328125 0.0234375 1.089844 -0.015625 0.851562 -0.0898438 Z M 0.851562 -4.015625 "/></g></g></g><g fill="rgb(0%, 50.19989%, 21.569824%)" fill-opacity="1"><g transform="translate(206.053449, 186.262352)"><g><path d="M 0.125 -4.066406 C 0.476562 -4.066406 0.5 -3.773438 0.5 -2.964844 L 0.5 -1.140625 C 0.5 -0.332031 0.476562 -0.0429688 0.125 -0.0429688 L 0.125 0 L 3.0625 0 L 3.0625 -0.679688 L 3.023438 -0.679688 C 3.023438 -0.0859375 1.769531 -0.0429688 1.378906 -0.0429688 L 0.855469 -0.0429688 L 0.855469 -2.234375 C 0.921875 -2.320312 1.023438 -2.382812 1.140625 -2.378906 C 1.433594 -2.371094 1.644531 -2.015625 2.144531 -2.015625 C 2.46875 -2.015625 2.667969 -2.226562 2.667969 -2.46875 L 2.628906 -2.46875 C 2.628906 -2.324219 2.480469 -2.234375 2.324219 -2.234375 C 1.964844 -2.234375 1.738281 -2.488281 1.332031 -2.488281 C 1.140625 -2.488281 0.976562 -2.417969 0.855469 -2.300781 L 0.855469 -4.066406 L 1.535156 -4.066406 C 2.480469 -4.066406 3.023438 -3.84375 3.023438 -3.570312 L 3.023438 -3.554688 L 3.0625 -3.554688 L 3.0625 -4.109375 L 0.125 -4.109375 Z M 0.125 -4.066406 "/></g></g></g><g fill="rgb(0%, 50.19989%, 21.569824%)" fill-opacity="1"><g transform="translate(210.937461, 186.262352)"><g/></g></g><g fill="rgb(0%, 50.19989%, 21.569824%)" fill-opacity="1"><g transform="translate(157.444896, 191.780683)"><g><path d="M 0.125 -4.066406 C 0.476562 -4.066406 0.5 -3.773438 0.5 -2.964844 L 0.5 -1.140625 C 0.5 -0.332031 0.476562 -0.0429688 0.125 -0.0429688 L 0.125 0 L 1.226562 0 L 1.226562 -0.0429688 C 0.875 -0.0429688 0.851562 -0.332031 0.851562 -1.140625 L 0.851562 -1.808594 C 1.027344 -1.730469 1.433594 -1.613281 1.796875 -1.613281 C 2.707031 -1.613281 3.199219 -2.238281 3.199219 -2.90625 C 3.199219 -3.640625 2.710938 -4.191406 1.835938 -4.191406 C 1.359375 -4.191406 1.066406 -4.109375 0.617188 -4.109375 L 0.125 -4.109375 Z M 0.851562 -1.847656 L 0.851562 -4 C 1.101562 -4.089844 1.296875 -4.132812 1.601562 -4.132812 C 2.367188 -4.132812 2.847656 -3.648438 2.847656 -2.902344 C 2.847656 -2.410156 2.539062 -1.695312 1.722656 -1.695312 C 1.363281 -1.695312 1.058594 -1.761719 0.851562 -1.847656 Z M 0.851562 -1.847656 "/></g></g></g><g fill="rgb(0%, 50.19989%, 21.569824%)" fill-opacity="1"><g transform="translate(162.589818, 191.780683)"><g><path d="M 0.125 0 L 1.226562 0 L 1.226562 -0.0429688 C 0.875 -0.0429688 0.851562 -0.332031 0.851562 -1.140625 L 0.851562 -4 C 1.101562 -4.089844 1.296875 -4.132812 1.601562 -4.132812 C 2.367188 -4.132812 2.847656 -3.714844 2.847656 -3.03125 C 2.847656 -2.539062 2.515625 -2.035156 2 -2.035156 C 1.617188 -2.035156 1.429688 -2.265625 1.1875 -2.265625 C 1.113281 -2.265625 1.042969 -2.226562 1.042969 -2.128906 C 1.042969 -1.847656 1.480469 -1.832031 1.878906 -1.230469 C 2.527344 -0.257812 2.640625 0 2.832031 0 L 3.457031 0 L 3.457031 -0.0429688 C 2.992188 -0.0429688 2.609375 -0.773438 2.285156 -1.277344 C 1.949219 -1.796875 1.085938 -1.851562 1.085938 -2.121094 C 1.085938 -2.214844 1.152344 -2.226562 1.203125 -2.226562 C 1.375 -2.226562 1.640625 -1.964844 2.023438 -1.964844 C 2.738281 -1.964844 3.199219 -2.472656 3.199219 -3.035156 C 3.199219 -3.703125 2.710938 -4.191406 1.835938 -4.191406 C 1.359375 -4.191406 1.066406 -4.109375 0.617188 -4.109375 L 0.125 -4.109375 L 0.125 -4.066406 C 0.476562 -4.066406 0.5 -3.773438 0.5 -2.964844 L 0.5 -1.140625 C 0.5 -0.332031 0.476562 -0.0429688 0.125 -0.0429688 Z M 0.125 0 "/></g></g></g><g fill="rgb(0%, 50.19989%, 21.569824%)" fill-opacity="1"><g transform="translate(167.870205, 191.780683)"><g><path d="M 2.074219 0.0820312 C 3.097656 0.0820312 3.902344 -0.820312 3.902344 -2.054688 C 3.902344 -3.285156 3.097656 -4.191406 2.074219 -4.191406 C 1.050781 -4.191406 0.246094 -3.285156 0.246094 -2.054688 C 0.246094 -0.820312 1.050781 0.0820312 2.074219 0.0820312 Z M 2.074219 -4.140625 C 2.925781 -4.140625 3.53125 -3.253906 3.53125 -2.054688 C 3.53125 -0.855469 2.867188 0.03125 2.074219 0.03125 C 1.28125 0.03125 0.617188 -0.855469 0.617188 -2.054688 C 0.617188 -3.253906 1.222656 -4.140625 2.074219 -4.140625 Z M 2.074219 -4.140625 "/></g></g></g><g fill="rgb(0%, 50.19989%, 21.569824%)" fill-opacity="1"><g transform="translate(173.717083, 191.780683)"><g><path d="M 2.074219 0.0820312 C 2.601562 0.0820312 2.960938 0 3.289062 -0.105469 L 3.289062 -0.65625 L 3.246094 -0.65625 C 3.246094 -0.65625 2.984375 0.03125 2.074219 0.03125 C 1.28125 0.03125 0.617188 -0.855469 0.617188 -2.054688 C 0.617188 -3.253906 1.222656 -4.140625 2.074219 -4.140625 C 2.761719 -4.140625 3.09375 -3.847656 3.09375 -3.359375 C 3.09375 -2.761719 1.9375 -2.519531 1.9375 -1.796875 C 1.9375 -1.605469 2.074219 -1.363281 2.296875 -1.414062 C 2.214844 -1.484375 2.171875 -1.550781 2.171875 -1.679688 C 2.171875 -2.167969 3.335938 -2.472656 3.335938 -3.328125 C 3.335938 -3.699219 3.015625 -4.191406 2.074219 -4.191406 C 1.050781 -4.191406 0.246094 -3.285156 0.246094 -2.054688 C 0.246094 -0.820312 1.050781 0.0820312 2.074219 0.0820312 Z M 2.074219 0.0820312 "/></g></g></g><g fill="rgb(0%, 50.19989%, 21.569824%)" fill-opacity="1"><g transform="translate(178.833271, 191.780683)"><g><path d="M 0.125 -4.066406 C 0.476562 -4.066406 0.5 -3.773438 0.5 -2.964844 L 0.5 -1.140625 C 0.5 -0.332031 0.476562 -0.0429688 0.125 -0.0429688 L 0.125 0 L 3.0625 0 L 3.0625 -0.679688 L 3.023438 -0.679688 C 3.023438 -0.0859375 1.769531 -0.0429688 1.378906 -0.0429688 L 0.855469 -0.0429688 L 0.855469 -2.234375 C 0.921875 -2.320312 1.023438 -2.382812 1.140625 -2.378906 C 1.433594 -2.371094 1.644531 -2.015625 2.144531 -2.015625 C 2.46875 -2.015625 2.667969 -2.226562 2.667969 -2.46875 L 2.628906 -2.46875 C 2.628906 -2.324219 2.480469 -2.234375 2.324219 -2.234375 C 1.964844 -2.234375 1.738281 -2.488281 1.332031 -2.488281 C 1.140625 -2.488281 0.976562 -2.417969 0.855469 -2.300781 L 0.855469 -4.066406 L 1.535156 -4.066406 C 2.480469 -4.066406 3.023438 -3.84375 3.023438 -3.570312 L 3.023438 -3.554688 L 3.0625 -3.554688 L 3.0625 -4.109375 L 0.125 -4.109375 Z M 0.125 -4.066406 "/></g></g></g><g fill="rgb(0%, 50.19989%, 21.569824%)" fill-opacity="1"><g transform="translate(183.719576, 191.780683)"><g><path d="M 0.125 0 L 0.453125 0 C 0.882812 0 1.238281 0.0820312 1.597656 0.0820312 C 2.863281 0.0820312 3.460938 -0.929688 3.460938 -2.054688 C 3.460938 -3.179688 2.863281 -4.191406 1.597656 -4.191406 C 1.238281 -4.191406 0.882812 -4.109375 0.453125 -4.109375 L 0.125 -4.109375 L 0.125 -4.066406 C 0.476562 -4.066406 0.5 -3.773438 0.5 -2.964844 L 0.5 -1.140625 C 0.5 -0.332031 0.476562 -0.0429688 0.125 -0.0429688 Z M 0.851562 -4.015625 C 1.089844 -4.089844 1.328125 -4.132812 1.59375 -4.132812 C 2.609375 -4.132812 3.109375 -3.175781 3.109375 -2.054688 C 3.109375 -0.933594 2.609375 0.0234375 1.59375 0.0234375 C 1.328125 0.0234375 1.089844 -0.015625 0.851562 -0.0898438 Z M 0.851562 -4.015625 "/></g></g></g><g fill="rgb(0%, 50.19989%, 21.569824%)" fill-opacity="1"><g transform="translate(189.127218, 191.780683)"><g><path d="M 0.125 -4.066406 C 0.476562 -4.066406 0.5 -3.773438 0.5 -2.964844 L 0.5 -1.140625 C 0.5 -0.332031 0.476562 -0.0429688 0.125 -0.0429688 L 0.125 0 L 1.230469 0 L 1.230469 -0.0429688 C 0.878906 -0.0429688 0.855469 -0.332031 0.855469 -1.140625 L 0.855469 -2.964844 C 0.855469 -3.773438 0.878906 -4.066406 1.230469 -4.066406 L 1.230469 -4.109375 L 0.125 -4.109375 Z M 0.125 -4.066406 "/></g></g></g><g fill="rgb(0%, 50.19989%, 21.569824%)" fill-opacity="1"><g transform="translate(192.18269, 191.780683)"><g><path d="M 0.125 -4.109375 L 0.125 -4.066406 C 0.476562 -4.066406 0.5 -3.773438 0.5 -2.964844 L 0.5 -1.140625 C 0.5 -0.332031 0.476562 -0.0429688 0.125 -0.0429688 L 0.125 0 L 1.230469 0 L 1.230469 -0.0429688 C 0.878906 -0.0429688 0.542969 -0.335938 0.542969 -1.53125 L 0.542969 -2.054688 L 0.546875 -3.816406 C 1.171875 -2.476562 1.539062 -1.679688 2.183594 -0.300781 L 2.222656 -0.300781 C 2.726562 -1.65625 3.140625 -2.785156 3.585938 -3.972656 L 3.585938 -1.140625 C 3.585938 -0.332031 3.5625 -0.0429688 3.207031 -0.0429688 L 3.207031 0 L 4.316406 0 L 4.316406 -0.0429688 C 3.964844 -0.0429688 3.9375 -0.332031 3.9375 -1.140625 L 3.9375 -2.964844 C 3.9375 -3.773438 3.964844 -4.066406 4.316406 -4.066406 L 4.316406 -4.109375 L 3.59375 -4.109375 L 2.363281 -0.796875 L 0.785156 -4.109375 Z M 0.125 -4.109375 "/></g></g></g><g fill="rgb(0%, 50.19989%, 21.569824%)" fill-opacity="1"><g transform="translate(198.321026, 191.780683)"><g><path d="M 0.125 -4.066406 C 0.476562 -4.066406 0.5 -3.773438 0.5 -2.964844 L 0.5 -1.140625 C 0.5 -0.332031 0.476562 -0.0429688 0.125 -0.0429688 L 0.125 0 L 3.0625 0 L 3.0625 -0.679688 L 3.023438 -0.679688 C 3.023438 -0.0859375 1.769531 -0.0429688 1.378906 -0.0429688 L 0.855469 -0.0429688 L 0.855469 -2.234375 C 0.921875 -2.320312 1.023438 -2.382812 1.140625 -2.378906 C 1.433594 -2.371094 1.644531 -2.015625 2.144531 -2.015625 C 2.46875 -2.015625 2.667969 -2.226562 2.667969 -2.46875 L 2.628906 -2.46875 C 2.628906 -2.324219 2.480469 -2.234375 2.324219 -2.234375 C 1.964844 -2.234375 1.738281 -2.488281 1.332031 -2.488281 C 1.140625 -2.488281 0.976562 -2.417969 0.855469 -2.300781 L 0.855469 -4.066406 L 1.535156 -4.066406 C 2.480469 -4.066406 3.023438 -3.84375 3.023438 -3.570312 L 3.023438 -3.554688 L 3.0625 -3.554688 L 3.0625 -4.109375 L 0.125 -4.109375 Z M 0.125 -4.066406 "/></g></g></g><g fill="rgb(0%, 50.19989%, 21.569824%)" fill-opacity="1"><g transform="translate(203.207331, 191.780683)"><g><path d="M 0.125 -4.109375 L 0.125 -4.066406 C 0.476562 -4.066406 0.5 -3.773438 0.5 -2.964844 L 0.5 -1.140625 C 0.5 -0.332031 0.476562 -0.0429688 0.125 -0.0429688 L 0.125 0 L 1.230469 0 L 1.230469 -0.0429688 C 0.878906 -0.0429688 0.542969 -0.523438 0.542969 -1.71875 L 0.542969 -3.878906 L 3.140625 0.0820312 L 3.183594 0.0820312 L 3.183594 -2.964844 C 3.183594 -3.773438 3.207031 -4.066406 3.5625 -4.066406 L 3.5625 -4.109375 L 2.453125 -4.109375 L 2.453125 -4.066406 C 2.804688 -4.066406 3.140625 -3.585938 3.140625 -2.390625 L 3.140625 -0.601562 L 0.84375 -4.109375 Z M 0.125 -4.109375 "/></g></g></g><g fill="rgb(0%, 50.19989%, 21.569824%)" fill-opacity="1"><g transform="translate(208.590344, 191.780683)"><g><path d="M 0.125 -4.109375 L 0.125 -3.554688 L 0.164062 -3.554688 C 0.164062 -3.566406 0.160156 -3.554688 0.160156 -3.570312 C 0.160156 -3.84375 0.679688 -4.066406 1.382812 -4.066406 L 1.382812 -1.140625 C 1.382812 -0.332031 1.359375 -0.0429688 1.007812 -0.0429688 L 1.007812 0 L 2.078125 0 L 2.078125 -0.0429688 C 1.726562 -0.0429688 1.734375 -0.332031 1.734375 -1.140625 L 1.734375 -4.066406 C 2.441406 -4.066406 2.957031 -3.84375 2.957031 -3.570312 C 2.957031 -3.554688 2.953125 -3.566406 2.953125 -3.554688 L 2.996094 -3.554688 L 2.996094 -4.109375 Z M 0.125 -4.109375 "/></g></g></g><g fill="rgb(0%, 50.19989%, 21.569824%)" fill-opacity="1"><g transform="translate(213.406863, 191.780683)"><g><path d="M 2.074219 0.0820312 C 3.097656 0.0820312 3.902344 -0.820312 3.902344 -2.054688 C 3.902344 -3.285156 3.097656 -4.191406 2.074219 -4.191406 C 1.050781 -4.191406 0.246094 -3.285156 0.246094 -2.054688 C 0.246094 -0.820312 1.050781 0.0820312 2.074219 0.0820312 Z M 2.074219 -4.140625 C 2.925781 -4.140625 3.53125 -3.253906 3.53125 -2.054688 C 3.53125 -0.855469 2.867188 0.03125 2.074219 0.03125 C 1.28125 0.03125 0.617188 -0.855469 0.617188 -2.054688 C 0.617188 -3.253906 1.222656 -4.140625 2.074219 -4.140625 Z M 2.074219 -4.140625 "/></g></g></g><path stroke-linecap="butt" transform="matrix(0.239709, 0, 0, 0.239927, 147.469375, 199.572584)" fill="none" stroke-linejoin="miter" d="M -0.00260656 0.00681146 L 326.304338 0.00681146 " stroke="rgb(0%, 50.19989%, 21.569824%)" stroke-width="1" stroke-opacity="1" stroke-miterlimit="4"/><path stroke-linecap="butt" transform="matrix(0.239835, 0, 0, 0.239927, 139.514513, 194.608874)" fill="none" stroke-linejoin="miter" d="M 0.00463677 0.00208971 L 325.146572 0.00208971 " stroke="rgb(0%, 50.19989%, 21.569824%)" stroke-width="1" stroke-opacity="1" stroke-miterlimit="4"/></svg>