<svg xmlns="http://www.w3.org/2000/svg" xmlns:xlink="http://www.w3.org/1999/xlink" width="500" zoomAndPan="magnify" viewBox="0 0 375 374.999991" height="500" preserveAspectRatio="xMidYMid meet" version="1.0"><defs><g/></defs><g fill="rgb(0%, 50.19989%, 21.569824%)" fill-opacity="1"><g transform="translate(147.316842, 188.761804)"><g><path d="M 2.132812 -12.445312 C 2.132812 -5.050781 6.828125 1.421875 15.078125 1.421875 C 29.226562 1.421875 37.546875 -11.09375 37.546875 -28.375 C 37.546875 -31.789062 37.40625 -34.632812 37.121094 -36.910156 L 45.941406 -13.652344 C 48.644531 -6.472656 49 -0.710938 38.972656 -0.710938 L 38.972656 0 L 62.296875 0 L 62.296875 -0.710938 C 57.957031 -0.710938 55.683594 -4.621094 52.554688 -12.445312 L 29.796875 -72.539062 L 29.085938 -72.539062 C 24.605469 -60.730469 21.972656 -53.691406 17.636719 -42.242188 C 16.925781 -40.394531 17.28125 -38.472656 19.273438 -38.472656 C 23.324219 -38.472656 25.460938 -45.941406 28.871094 -45.941406 C 29.796875 -45.941406 30.578125 -45.371094 30.578125 -44.019531 C 30.578125 -36.625 2.132812 -29.9375 2.132812 -12.445312 Z M 8.179688 -13.796875 C 8.179688 -31.363281 31.363281 -34.347656 31.363281 -43.878906 C 31.363281 -45.726562 30.367188 -46.652344 29.015625 -46.652344 C 25.246094 -46.652344 22.613281 -39.183594 19.34375 -39.183594 C 18.207031 -39.183594 17.636719 -40.039062 18.5625 -42.527344 L 26.738281 -64.289062 L 35.34375 -41.601562 C 36.625 -37.40625 36.835938 -33.496094 36.835938 -28.234375 C 36.835938 -16.570312 31.21875 -1.992188 19.34375 -1.992188 C 12.375 -1.992188 8.179688 -7.113281 8.179688 -13.796875 Z M 8.179688 -13.796875 "/></g></g></g><g fill="rgb(0%, 50.19989%, 21.569824%)" fill-opacity="1"><g transform="translate(209.608586, 188.761804)"><g><path d="M 4.265625 -4.765625 C 4.265625 -2.132812 6.398438 0 9.03125 0 C 11.664062 0 13.796875 -2.132812 13.796875 -4.765625 C 13.796875 -7.394531 11.664062 -9.53125 9.03125 -9.53125 C 6.398438 -9.53125 4.265625 -7.394531 4.265625 -4.765625 Z M 4.265625 -4.765625 "/></g></g></g><g fill="rgb(0%, 50.19989%, 21.569824%)" fill-opacity="1"><g transform="translate(119.529859, 216.378413)"><g><path d="M 0.386719 -2.246094 C 0.386719 -0.910156 1.234375 0.257812 2.722656 0.257812 C 5.277344 0.257812 6.78125 -2.003906 6.78125 -5.125 C 6.78125 -5.738281 6.753906 -6.253906 6.703125 -6.664062 L 8.292969 -2.464844 C 8.78125 -1.167969 8.847656 -0.128906 7.035156 -0.128906 L 7.035156 0 L 11.246094 0 L 11.246094 -0.128906 C 10.464844 -0.128906 10.054688 -0.835938 9.488281 -2.246094 L 5.378906 -13.097656 L 5.25 -13.097656 C 4.441406 -10.964844 3.96875 -9.695312 3.183594 -7.628906 C 3.054688 -7.292969 3.121094 -6.945312 3.480469 -6.945312 C 4.210938 -6.945312 4.597656 -8.292969 5.214844 -8.292969 C 5.378906 -8.292969 5.519531 -8.191406 5.519531 -7.949219 C 5.519531 -6.613281 0.386719 -5.40625 0.386719 -2.246094 Z M 1.476562 -2.492188 C 1.476562 -5.664062 5.664062 -6.203125 5.664062 -7.921875 C 5.664062 -8.257812 5.484375 -8.421875 5.238281 -8.421875 C 4.558594 -8.421875 4.082031 -7.074219 3.492188 -7.074219 C 3.285156 -7.074219 3.183594 -7.230469 3.351562 -7.679688 L 4.828125 -11.605469 L 6.382812 -7.511719 C 6.613281 -6.753906 6.652344 -6.046875 6.652344 -5.097656 C 6.652344 -2.992188 5.636719 -0.359375 3.492188 -0.359375 C 2.234375 -0.359375 1.476562 -1.285156 1.476562 -2.492188 Z M 1.476562 -2.492188 "/></g></g></g><g fill="rgb(0%, 50.19989%, 21.569824%)" fill-opacity="1"><g transform="translate(136.087386, 216.378413)"><g><path d="M 0.769531 -6.421875 C 0.769531 -2.566406 3.285156 0.257812 6.484375 0.257812 C 8.320312 0.257812 9.847656 -0.667969 10.824219 -2.285156 L 10.824219 -4.132812 C 10.824219 -6.1875 8.988281 -6.421875 7.230469 -6.421875 C 5.609375 -6.421875 4.042969 -6.214844 4.042969 -7.074219 C 4.042969 -7.679688 4.777344 -7.949219 5.574219 -7.949219 C 6.84375 -7.949219 8.578125 -6.714844 10.117188 -6.714844 C 10.914062 -6.714844 11.621094 -7.164062 11.414062 -7.972656 C 11.414062 -7.972656 11.375 -7.589844 10.476562 -7.589844 C 8.820312 -7.589844 7.769531 -8.757812 5.855469 -8.757812 C 5.085938 -8.757812 3.902344 -8.230469 3.902344 -7.140625 C 3.902344 -6.382812 4.636719 -6.265625 5.574219 -6.265625 C 7.292969 -6.265625 9.71875 -6.636719 9.71875 -4.132812 L 9.71875 -2.324219 C 9.71875 -1.863281 8.742188 0.101562 6.484375 0.101562 C 4.007812 0.101562 1.925781 -2.671875 1.925781 -6.421875 C 1.925781 -10.167969 3.828125 -12.941406 6.484375 -12.941406 C 9.230469 -12.941406 10.015625 -10.785156 10.015625 -10.785156 L 10.144531 -10.785156 L 10.144531 -12.507812 C 9.15625 -12.839844 8.0625 -13.097656 6.484375 -13.097656 C 3.285156 -13.097656 0.769531 -10.273438 0.769531 -6.421875 Z M 0.769531 -6.421875 "/></g></g></g><g fill="rgb(0%, 50.19989%, 21.569824%)" fill-opacity="1"><g transform="translate(153.222358, 216.378413)"><g><path d="M 0.386719 -12.710938 C 1.488281 -12.710938 1.566406 -11.800781 1.566406 -9.269531 L 1.566406 -3.570312 C 1.566406 -1.039062 1.488281 -0.128906 0.386719 -0.128906 L 0.386719 0 L 9.578125 0 L 9.578125 -2.117188 L 9.449219 -2.117188 C 9.449219 -0.269531 5.535156 -0.128906 4.3125 -0.128906 L 2.671875 -0.128906 L 2.671875 -6.984375 C 2.875 -7.253906 3.195312 -7.445312 3.570312 -7.433594 C 4.480469 -7.410156 5.136719 -6.304688 6.703125 -6.304688 C 7.71875 -6.304688 8.347656 -6.960938 8.347656 -7.71875 L 8.21875 -7.71875 C 8.21875 -7.265625 7.753906 -6.984375 7.265625 -6.984375 C 6.136719 -6.984375 5.429688 -7.78125 4.160156 -7.78125 C 3.570312 -7.78125 3.054688 -7.5625 2.671875 -7.191406 L 2.671875 -12.710938 L 4.800781 -12.710938 C 7.753906 -12.710938 9.449219 -12.019531 9.449219 -11.15625 L 9.449219 -11.105469 L 9.578125 -11.105469 L 9.578125 -12.839844 L 0.386719 -12.839844 Z M 0.386719 -12.710938 "/></g></g></g><g fill="rgb(0%, 50.19989%, 21.569824%)" fill-opacity="1"><g transform="translate(168.496681, 216.378413)"><g><path d="M 0.386719 -12.839844 L 0.386719 -12.710938 C 1.488281 -12.710938 1.566406 -11.800781 1.566406 -9.269531 L 1.566406 -3.570312 C 1.566406 -1.039062 1.488281 -0.128906 0.386719 -0.128906 L 0.386719 0 L 3.851562 0 L 3.851562 -0.128906 C 2.746094 -0.128906 1.695312 -1.628906 1.695312 -5.367188 L 1.695312 -12.121094 L 9.824219 0.257812 L 9.949219 0.257812 L 9.949219 -9.269531 C 9.949219 -11.800781 10.027344 -12.710938 11.132812 -12.710938 L 11.132812 -12.839844 L 7.664062 -12.839844 L 7.664062 -12.710938 C 8.769531 -12.710938 9.824219 -11.210938 9.824219 -7.472656 L 9.824219 -1.875 L 2.632812 -12.839844 Z M 0.386719 -12.839844 "/></g></g></g><g fill="rgb(0%, 50.19989%, 21.569824%)" fill-opacity="1"><g transform="translate(185.323684, 216.378413)"><g><path d="M 0.386719 0 L 1.414062 0 C 2.761719 0 3.863281 0.257812 4.996094 0.257812 C 8.949219 0.257812 10.824219 -2.902344 10.824219 -6.421875 C 10.824219 -9.9375 8.949219 -13.097656 4.996094 -13.097656 C 3.863281 -13.097656 2.761719 -12.839844 1.414062 -12.839844 L 0.386719 -12.839844 L 0.386719 -12.710938 C 1.488281 -12.710938 1.566406 -11.800781 1.566406 -9.269531 L 1.566406 -3.570312 C 1.566406 -1.039062 1.488281 -0.128906 0.386719 -0.128906 Z M 2.65625 -12.558594 C 3.402344 -12.789062 4.148438 -12.917969 4.980469 -12.917969 C 8.152344 -12.917969 9.71875 -9.925781 9.71875 -6.421875 C 9.71875 -2.914062 8.152344 0.078125 4.980469 0.078125 C 4.148438 0.078125 3.402344 -0.0507812 2.65625 -0.28125 Z M 2.65625 -12.558594 "/></g></g></g><g fill="rgb(0%, 50.19989%, 21.569824%)" fill-opacity="1"><g transform="translate(202.227682, 216.378413)"><g><path d="M 0.386719 -2.246094 C 0.386719 -0.910156 1.234375 0.257812 2.722656 0.257812 C 5.277344 0.257812 6.78125 -2.003906 6.78125 -5.125 C 6.78125 -5.738281 6.753906 -6.253906 6.703125 -6.664062 L 8.292969 -2.464844 C 8.78125 -1.167969 8.847656 -0.128906 7.035156 -0.128906 L 7.035156 0 L 11.246094 0 L 11.246094 -0.128906 C 10.464844 -0.128906 10.054688 -0.835938 9.488281 -2.246094 L 5.378906 -13.097656 L 5.25 -13.097656 C 4.441406 -10.964844 3.96875 -9.695312 3.183594 -7.628906 C 3.054688 -7.292969 3.121094 -6.945312 3.480469 -6.945312 C 4.210938 -6.945312 4.597656 -8.292969 5.214844 -8.292969 C 5.378906 -8.292969 5.519531 -8.191406 5.519531 -7.949219 C 5.519531 -6.613281 0.386719 -5.40625 0.386719 -2.246094 Z M 1.476562 -2.492188 C 1.476562 -5.664062 5.664062 -6.203125 5.664062 -7.921875 C 5.664062 -8.257812 5.484375 -8.421875 5.238281 -8.421875 C 4.558594 -8.421875 4.082031 -7.074219 3.492188 -7.074219 C 3.285156 -7.074219 3.183594 -7.230469 3.351562 -7.679688 L 4.828125 -11.605469 L 6.382812 -7.511719 C 6.613281 -6.753906 6.652344 -6.046875 6.652344 -5.097656 C 6.652344 -2.992188 5.636719 -0.359375 3.492188 -0.359375 C 2.234375 -0.359375 1.476562 -1.285156 1.476562 -2.492188 Z M 1.476562 -2.492188 "/></g></g></g><g fill="rgb(0%, 50.19989%, 21.569824%)" fill-opacity="1"><g transform="translate(218.785205, 216.378413)"><g/></g></g><g fill="rgb(0%, 50.19989%, 21.569824%)" fill-opacity="1"><g transform="translate(228.593077, 216.378413)"><g><path d="M 0.386719 0 L 1.414062 0 C 2.761719 0 3.863281 0.257812 4.996094 0.257812 C 8.949219 0.257812 10.824219 -2.902344 10.824219 -6.421875 C 10.824219 -9.9375 8.949219 -13.097656 4.996094 -13.097656 C 3.863281 -13.097656 2.761719 -12.839844 1.414062 -12.839844 L 0.386719 -12.839844 L 0.386719 -12.710938 C 1.488281 -12.710938 1.566406 -11.800781 1.566406 -9.269531 L 1.566406 -3.570312 C 1.566406 -1.039062 1.488281 -0.128906 0.386719 -0.128906 Z M 2.65625 -12.558594 C 3.402344 -12.789062 4.148438 -12.917969 4.980469 -12.917969 C 8.152344 -12.917969 9.71875 -9.925781 9.71875 -6.421875 C 9.71875 -2.914062 8.152344 0.078125 4.980469 0.078125 C 4.148438 0.078125 3.402344 -0.0507812 2.65625 -0.28125 Z M 2.65625 -12.558594 "/></g></g></g><g fill="rgb(0%, 50.19989%, 21.569824%)" fill-opacity="1"><g transform="translate(245.497075, 216.378413)"><g><path d="M 0.386719 -12.710938 C 1.488281 -12.710938 1.566406 -11.800781 1.566406 -9.269531 L 1.566406 -3.570312 C 1.566406 -1.039062 1.488281 -0.128906 0.386719 -0.128906 L 0.386719 0 L 9.578125 0 L 9.578125 -2.117188 L 9.449219 -2.117188 C 9.449219 -0.269531 5.535156 -0.128906 4.3125 -0.128906 L 2.671875 -0.128906 L 2.671875 -6.984375 C 2.875 -7.253906 3.195312 -7.445312 3.570312 -7.433594 C 4.480469 -7.410156 5.136719 -6.304688 6.703125 -6.304688 C 7.71875 -6.304688 8.347656 -6.960938 8.347656 -7.71875 L 8.21875 -7.71875 C 8.21875 -7.265625 7.753906 -6.984375 7.265625 -6.984375 C 6.136719 -6.984375 5.429688 -7.78125 4.160156 -7.78125 C 3.570312 -7.78125 3.054688 -7.5625 2.671875 -7.191406 L 2.671875 -12.710938 L 4.800781 -12.710938 C 7.753906 -12.710938 9.449219 -12.019531 9.449219 -11.15625 L 9.449219 -11.105469 L 9.578125 -11.105469 L 9.578125 -12.839844 L 0.386719 -12.839844 Z M 0.386719 -12.710938 "/></g></g></g><g fill="rgb(0%, 50.19989%, 21.569824%)" fill-opacity="1"><g transform="translate(260.764228, 216.378413)"><g/></g></g><g fill="rgb(0%, 50.19989%, 21.569824%)" fill-opacity="1"><g transform="translate(93.549392, 233.628412)"><g><path d="M 0.386719 -12.710938 C 1.488281 -12.710938 1.566406 -11.800781 1.566406 -9.269531 L 1.566406 -3.570312 C 1.566406 -1.039062 1.488281 -0.128906 0.386719 -0.128906 L 0.386719 0 L 3.839844 0 L 3.839844 -0.128906 C 2.734375 -0.128906 2.65625 -1.039062 2.65625 -3.570312 L 2.65625 -5.648438 C 3.210938 -5.40625 4.480469 -5.046875 5.609375 -5.046875 C 8.460938 -5.046875 10.003906 -6.996094 10.003906 -9.089844 C 10.003906 -11.375 8.472656 -13.097656 5.738281 -13.097656 C 4.25 -13.097656 3.339844 -12.839844 1.925781 -12.839844 L 0.386719 -12.839844 Z M 2.65625 -5.777344 L 2.65625 -12.507812 C 3.441406 -12.789062 4.058594 -12.917969 5.007812 -12.917969 C 7.394531 -12.917969 8.898438 -11.402344 8.898438 -9.078125 C 8.898438 -7.535156 7.933594 -5.304688 5.378906 -5.304688 C 4.261719 -5.304688 3.3125 -5.507812 2.65625 -5.777344 Z M 2.65625 -5.777344 "/></g></g></g><g fill="rgb(0%, 50.19989%, 21.569824%)" fill-opacity="1"><g transform="translate(109.632138, 233.628412)"><g><path d="M 0.386719 0 L 3.839844 0 L 3.839844 -0.128906 C 2.734375 -0.128906 2.65625 -1.039062 2.65625 -3.570312 L 2.65625 -12.507812 C 3.441406 -12.789062 4.058594 -12.917969 5.007812 -12.917969 C 7.394531 -12.917969 8.898438 -11.605469 8.898438 -9.476562 C 8.898438 -7.933594 7.859375 -6.355469 6.253906 -6.355469 C 5.058594 -6.355469 4.46875 -7.085938 3.710938 -7.085938 C 3.480469 -7.085938 3.261719 -6.960938 3.261719 -6.652344 C 3.261719 -5.777344 4.621094 -5.726562 5.867188 -3.851562 C 7.898438 -0.808594 8.257812 0 8.847656 0 L 10.8125 0 L 10.8125 -0.128906 C 9.347656 -0.128906 8.152344 -2.414062 7.140625 -3.992188 C 6.097656 -5.609375 3.390625 -5.789062 3.390625 -6.625 C 3.390625 -6.921875 3.609375 -6.960938 3.761719 -6.960938 C 4.300781 -6.960938 5.125 -6.136719 6.332031 -6.136719 C 8.5625 -6.136719 10.003906 -7.730469 10.003906 -9.488281 C 10.003906 -11.582031 8.472656 -13.097656 5.738281 -13.097656 C 4.25 -13.097656 3.339844 -12.839844 1.925781 -12.839844 L 0.386719 -12.839844 L 0.386719 -12.710938 C 1.488281 -12.710938 1.566406 -11.800781 1.566406 -9.269531 L 1.566406 -3.570312 C 1.566406 -1.039062 1.488281 -0.128906 0.386719 -0.128906 Z M 0.386719 0 "/></g></g></g><g fill="rgb(0%, 50.19989%, 21.569824%)" fill-opacity="1"><g transform="translate(126.138338, 233.628412)"><g><path d="M 6.484375 0.257812 C 9.679688 0.257812 12.199219 -2.566406 12.199219 -6.421875 C 12.199219 -10.273438 9.679688 -13.097656 6.484375 -13.097656 C 3.285156 -13.097656 0.769531 -10.273438 0.769531 -6.421875 C 0.769531 -2.566406 3.285156 0.257812 6.484375 0.257812 Z M 6.484375 -12.941406 C 9.140625 -12.941406 11.042969 -10.167969 11.042969 -6.421875 C 11.042969 -2.671875 8.960938 0.101562 6.484375 0.101562 C 4.007812 0.101562 1.925781 -2.671875 1.925781 -6.421875 C 1.925781 -10.167969 3.828125 -12.941406 6.484375 -12.941406 Z M 6.484375 -12.941406 "/></g></g></g><g fill="rgb(0%, 50.19989%, 21.569824%)" fill-opacity="1"><g transform="translate(144.415361, 233.628412)"><g><path d="M 6.484375 0.257812 C 8.128906 0.257812 9.257812 0 10.285156 -0.332031 L 10.285156 -2.054688 L 10.144531 -2.054688 C 10.144531 -2.054688 9.335938 0.101562 6.484375 0.101562 C 4.007812 0.101562 1.925781 -2.671875 1.925781 -6.421875 C 1.925781 -10.167969 3.828125 -12.941406 6.484375 -12.941406 C 8.628906 -12.941406 9.667969 -12.03125 9.667969 -10.503906 C 9.667969 -8.628906 6.058594 -7.871094 6.058594 -5.609375 C 6.058594 -5.019531 6.484375 -4.261719 7.175781 -4.417969 C 6.921875 -4.636719 6.792969 -4.855469 6.792969 -5.25 C 6.792969 -6.78125 10.425781 -7.730469 10.425781 -10.402344 C 10.425781 -11.570312 9.425781 -13.097656 6.484375 -13.097656 C 3.285156 -13.097656 0.769531 -10.273438 0.769531 -6.421875 C 0.769531 -2.566406 3.285156 0.257812 6.484375 0.257812 Z M 6.484375 0.257812 "/></g></g></g><g fill="rgb(0%, 50.19989%, 21.569824%)" fill-opacity="1"><g transform="translate(160.408283, 233.628412)"><g><path d="M 0.386719 -12.710938 C 1.488281 -12.710938 1.566406 -11.800781 1.566406 -9.269531 L 1.566406 -3.570312 C 1.566406 -1.039062 1.488281 -0.128906 0.386719 -0.128906 L 0.386719 0 L 9.578125 0 L 9.578125 -2.117188 L 9.449219 -2.117188 C 9.449219 -0.269531 5.535156 -0.128906 4.3125 -0.128906 L 2.671875 -0.128906 L 2.671875 -6.984375 C 2.875 -7.253906 3.195312 -7.445312 3.570312 -7.433594 C 4.480469 -7.410156 5.136719 -6.304688 6.703125 -6.304688 C 7.71875 -6.304688 8.347656 -6.960938 8.347656 -7.71875 L 8.21875 -7.71875 C 8.21875 -7.265625 7.753906 -6.984375 7.265625 -6.984375 C 6.136719 -6.984375 5.429688 -7.78125 4.160156 -7.78125 C 3.570312 -7.78125 3.054688 -7.5625 2.671875 -7.191406 L 2.671875 -12.710938 L 4.800781 -12.710938 C 7.753906 -12.710938 9.449219 -12.019531 9.449219 -11.15625 L 9.449219 -11.105469 L 9.578125 -11.105469 L 9.578125 -12.839844 L 0.386719 -12.839844 Z M 0.386719 -12.710938 "/></g></g></g><g fill="rgb(0%, 50.19989%, 21.569824%)" fill-opacity="1"><g transform="translate(175.682608, 233.628412)"><g><path d="M 0.386719 0 L 1.414062 0 C 2.761719 0 3.863281 0.257812 4.996094 0.257812 C 8.949219 0.257812 10.824219 -2.902344 10.824219 -6.421875 C 10.824219 -9.9375 8.949219 -13.097656 4.996094 -13.097656 C 3.863281 -13.097656 2.761719 -12.839844 1.414062 -12.839844 L 0.386719 -12.839844 L 0.386719 -12.710938 C 1.488281 -12.710938 1.566406 -11.800781 1.566406 -9.269531 L 1.566406 -3.570312 C 1.566406 -1.039062 1.488281 -0.128906 0.386719 -0.128906 Z M 2.65625 -12.558594 C 3.402344 -12.789062 4.148438 -12.917969 4.980469 -12.917969 C 8.152344 -12.917969 9.71875 -9.925781 9.71875 -6.421875 C 9.71875 -2.914062 8.152344 0.078125 4.980469 0.078125 C 4.148438 0.078125 3.402344 -0.0507812 2.65625 -0.28125 Z M 2.65625 -12.558594 "/></g></g></g><g fill="rgb(0%, 50.19989%, 21.569824%)" fill-opacity="1"><g transform="translate(192.586601, 233.628412)"><g><path d="M 0.386719 -12.710938 C 1.488281 -12.710938 1.566406 -11.800781 1.566406 -9.269531 L 1.566406 -3.570312 C 1.566406 -1.039062 1.488281 -0.128906 0.386719 -0.128906 L 0.386719 0 L 3.851562 0 L 3.851562 -0.128906 C 2.746094 -0.128906 2.671875 -1.039062 2.671875 -3.570312 L 2.671875 -9.269531 C 2.671875 -11.800781 2.746094 -12.710938 3.851562 -12.710938 L 3.851562 -12.839844 L 0.386719 -12.839844 Z M 0.386719 -12.710938 "/></g></g></g><g fill="rgb(0%, 50.19989%, 21.569824%)" fill-opacity="1"><g transform="translate(202.137839, 233.628412)"><g><path d="M 0.386719 -12.839844 L 0.386719 -12.710938 C 1.488281 -12.710938 1.566406 -11.800781 1.566406 -9.269531 L 1.566406 -3.570312 C 1.566406 -1.039062 1.488281 -0.128906 0.386719 -0.128906 L 0.386719 0 L 3.851562 0 L 3.851562 -0.128906 C 2.746094 -0.128906 1.695312 -1.054688 1.695312 -4.789062 L 1.695312 -6.421875 L 1.707031 -11.929688 C 3.660156 -7.742188 4.816406 -5.25 6.832031 -0.9375 L 6.945312 -0.9375 C 8.527344 -5.175781 9.824219 -8.707031 11.210938 -12.417969 L 11.210938 -3.570312 C 11.210938 -1.039062 11.132812 -0.128906 10.027344 -0.128906 L 10.027344 0 L 13.496094 0 L 13.496094 -0.128906 C 12.390625 -0.128906 12.3125 -1.039062 12.3125 -3.570312 L 12.3125 -9.269531 C 12.3125 -11.800781 12.390625 -12.710938 13.496094 -12.710938 L 13.496094 -12.839844 L 11.234375 -12.839844 L 7.382812 -2.492188 L 2.453125 -12.839844 Z M 0.386719 -12.839844 "/></g></g></g><g fill="rgb(0%, 50.19989%, 21.569824%)" fill-opacity="1"><g transform="translate(221.325941, 233.628412)"><g><path d="M 0.386719 -12.710938 C 1.488281 -12.710938 1.566406 -11.800781 1.566406 -9.269531 L 1.566406 -3.570312 C 1.566406 -1.039062 1.488281 -0.128906 0.386719 -0.128906 L 0.386719 0 L 9.578125 0 L 9.578125 -2.117188 L 9.449219 -2.117188 C 9.449219 -0.269531 5.535156 -0.128906 4.3125 -0.128906 L 2.671875 -0.128906 L 2.671875 -6.984375 C 2.875 -7.253906 3.195312 -7.445312 3.570312 -7.433594 C 4.480469 -7.410156 5.136719 -6.304688 6.703125 -6.304688 C 7.71875 -6.304688 8.347656 -6.960938 8.347656 -7.71875 L 8.21875 -7.71875 C 8.21875 -7.265625 7.753906 -6.984375 7.265625 -6.984375 C 6.136719 -6.984375 5.429688 -7.78125 4.160156 -7.78125 C 3.570312 -7.78125 3.054688 -7.5625 2.671875 -7.191406 L 2.671875 -12.710938 L 4.800781 -12.710938 C 7.753906 -12.710938 9.449219 -12.019531 9.449219 -11.15625 L 9.449219 -11.105469 L 9.578125 -11.105469 L 9.578125 -12.839844 L 0.386719 -12.839844 Z M 0.386719 -12.710938 "/></g></g></g><g fill="rgb(0%, 50.19989%, 21.569824%)" fill-opacity="1"><g transform="translate(236.600266, 233.628412)"><g><path d="M 0.386719 -12.839844 L 0.386719 -12.710938 C 1.488281 -12.710938 1.566406 -11.800781 1.566406 -9.269531 L 1.566406 -3.570312 C 1.566406 -1.039062 1.488281 -0.128906 0.386719 -0.128906 L 0.386719 0 L 3.851562 0 L 3.851562 -0.128906 C 2.746094 -0.128906 1.695312 -1.628906 1.695312 -5.367188 L 1.695312 -12.121094 L 9.824219 0.257812 L 9.949219 0.257812 L 9.949219 -9.269531 C 9.949219 -11.800781 10.027344 -12.710938 11.132812 -12.710938 L 11.132812 -12.839844 L 7.664062 -12.839844 L 7.664062 -12.710938 C 8.769531 -12.710938 9.824219 -11.210938 9.824219 -7.472656 L 9.824219 -1.875 L 2.632812 -12.839844 Z M 0.386719 -12.839844 "/></g></g></g><g fill="rgb(0%, 50.19989%, 21.569824%)" fill-opacity="1"><g transform="translate(253.427268, 233.628412)"><g><path d="M 0.386719 -12.839844 L 0.386719 -11.105469 L 0.511719 -11.105469 C 0.511719 -11.144531 0.5 -11.105469 0.5 -11.15625 C 0.5 -12.019531 2.117188 -12.710938 4.328125 -12.710938 L 4.328125 -3.570312 C 4.328125 -1.039062 4.25 -0.128906 3.144531 -0.128906 L 3.144531 0 L 6.496094 0 L 6.496094 -0.128906 C 5.394531 -0.128906 5.417969 -1.039062 5.417969 -3.570312 L 5.417969 -12.710938 C 7.628906 -12.710938 9.246094 -12.019531 9.246094 -11.15625 C 9.246094 -11.105469 9.230469 -11.144531 9.230469 -11.105469 L 9.359375 -11.105469 L 9.359375 -12.839844 Z M 0.386719 -12.839844 "/></g></g></g><g fill="rgb(0%, 50.19989%, 21.569824%)" fill-opacity="1"><g transform="translate(268.483446, 233.628412)"><g><path d="M 6.484375 0.257812 C 9.679688 0.257812 12.199219 -2.566406 12.199219 -6.421875 C 12.199219 -10.273438 9.679688 -13.097656 6.484375 -13.097656 C 3.285156 -13.097656 0.769531 -10.273438 0.769531 -6.421875 C 0.769531 -2.566406 3.285156 0.257812 6.484375 0.257812 Z M 6.484375 -12.941406 C 9.140625 -12.941406 11.042969 -10.167969 11.042969 -6.421875 C 11.042969 -2.671875 8.960938 0.101562 6.484375 0.101562 C 4.007812 0.101562 1.925781 -2.671875 1.925781 -6.421875 C 1.925781 -10.167969 3.828125 -12.941406 6.484375 -12.941406 Z M 6.484375 -12.941406 "/></g></g></g><path stroke-linecap="butt" transform="matrix(0.749318, 0, 0, 0.75, 62.36647, 257.985482)" fill="none" stroke-linejoin="miter" d="M 0.000957532 -0.00147635 L 326.303054 -0.00147635 " stroke="rgb(0%, 50.19989%, 21.569824%)" stroke-width="1" stroke-opacity="1" stroke-miterlimit="4"/><path stroke-linecap="butt" transform="matrix(0.749712, 0, 0, 0.75, 37.500002, 242.469212)" fill="none" stroke-linejoin="miter" d="M -0.00000271771 -0.000616104 L 325.140643 -0.000616104 " stroke="rgb(0%, 50.19989%, 21.569824%)" stroke-width="1" stroke-opacity="1" stroke-miterlimit="4"/></svg>